# xmcd CD database file
#
# Track frame offsets:
#	150
#	14025
#	31718
#	47635
#	63050
#	80145
#	90622
#	100672
#	116022
#	131158
#	140634
#	157199
#	176796
#	194655
#	209437
#	231049
#	247438
#	266187
#	280418
#	297861
#
# Disc length: 4078 seconds
#
# Revision: 1
# Processed by: cddbd v1.5.2PL0 Copyright (c) Steve Scherf et al.
# Submitted via: CDex 1.70beta2
#
DISCID=3c0fec14
DTITLE=Various Artist - Country Ballads - CD1
DYEAR=1900
DGENRE=Country
TTITLE0=Dolly Parton - I Will Always Love You
TTITLE1=The Tractors - Baby Likes To Rock It
TTITLE2=Willie Nelson - Always On My Mind
TTITLE3=Alabama - Down Home
TTITLE4=J.D Souther - You're Only Lonely
TTITLE5=Kris Kristofferson - Help Me Make It Through The Night
TTITLE6=Charley Pride - Is Anybody Going to San Antone
TTITLE7=Poco - Here We Go Again
TTITLE8=Merle Haggard - Kern River
TTITLE9=Tammy Winette and George Jones - Did You Ever
TTITLE10=Clay Walker - Sweet Sun Angel
TTITLE11=Roger McGuinn - Lost My Drivin' Wheel
TTITLE12=John Anderson - Seminale Wind
TTITLE13=Vince Gill - O Carolina
TTITLE14=Michael Murphey - Wildfire
TTITLE15=Exile - Hang On To Your Heart
TTITLE16=Lorrie Morgan - I Guess You Had To Be There
TTITLE17=Sweethearts Of The Rodeo - So Sad To Watch Good Love Go Bad
TTITLE18=The Charlie Daniels Band - Behind Your Eyes
TTITLE19=Roger Miller - In The Summertime
EXTD=
EXTT0=
EXTT1=
EXTT2=
EXTT3=
EXTT4=
EXTT5=
EXTT6=
EXTT7=
EXTT8=
EXTT9=
EXTT10=
EXTT11=
EXTT12=
EXTT13=
EXTT14=
EXTT15=
EXTT16=
EXTT17=
EXTT18=
EXTT19=
PLAYORDER=
